#!OML:ASF F:\VICON\USERDATA\INSTALL\rory3\rory3.ASF
:FULLY-SPECIFIED
:DEGREES
4131
root 1.10925 17.8471 -1.10715 -169.361 248.727 -192.954
lowerback 1.80319 0.742332 -0.601669
upperback -1.38858 0.846666 -3.77142
thorax -2.39096 0.381302 -3.57886
lowerneck -16.8562 -16.1736 -15.2522
upperneck 11.1279 -19.8885 9.60462
head 8.6353 -9.34246 2.69736
rclavicle 4.58199e-014 -6.20208e-014
rhumerus 44.5106 -21.4518 -30.5968
rradius 31.777
rwrist 26.9187
rhand -23.8716 -12.439
rfingers 7.12502
rthumb 2.60139 -42.4029
lclavicle 4.58199e-014 -6.20208e-014
lhumerus -43.2199 13.0965 66.9563
lradius 48.4557
lwrist -11.6695
lhand -10.4629 30.5001
lfingers 7.12502
lthumb 15.5378 1139.9
rfemur -7.2868 -6.74768 29.164
rtibia 26.4387
rfoot -18.9463 -11.2741
rtoes 9.00103
lfemur -1.9566 -11.3948 -3.07972
ltibia 42.4255
lfoot 7.62793 -5.4962
ltoes -22.4722
4132
root 1.08108 17.8514 -1.10866 -170.092 249.053 -192.146
lowerback 1.64517 0.841029 -0.867722
upperback -1.39929 0.970765 -3.84226
thorax -2.30928 0.446305 -3.50394
lowerneck -16.8775 -15.9895 -14.9894
upperneck 10.8026 -19.6554 9.55791
head 8.46919 -9.23159 2.70327
rclavicle 9.98893e-014 -4.77083e-015
rhumerus 44.2483 -20.9812 -30.128
rradius 32.3489
rwrist 26.1099
rhand -23.9991 -12.6602
rfingers 7.12502
rthumb 2.47827 -42.6256
lclavicle 9.98893e-014 -4.77083e-015
lhumerus -43.2316 13.0388 66.9841
lradius 47.6606
lwrist -12.1519
lhand -10.2924 30.0952
lfingers 7.12502
lthumb 15.702 1139.48
rfemur -7.20157 -6.57525 28.7829
rtibia 26.4384
rfoot -19.1084 -10.9651
rtoes 10.3278
lfemur -2.00303 -11.4541 -3.55298
ltibia 42.6307
lfoot 8.12583 -5.35837
ltoes -22.5339
4133
root 1.05625 17.851 -1.10406 -170.193 249.293 -191.932
lowerback 1.42169 0.877713 -0.855672
upperback -1.45333 1.02554 -3.81965
thorax -2.23629 0.473772 -3.48557
lowerneck -16.8749 -15.7895 -14.9402
upperneck 10.4807 -19.3766 9.6307
head 8.33119 -9.09711 2.78243
rclavicle 2.85256e-014 -6.36111e-015
rhumerus 45.4498 -20.604 -30.706
rradius 31.9385
rwrist 26.252
rhand -23.9981 -12.6789
rfingers 7.12502
rthumb 2.47918 -42.6442
lclavicle 2.85256e-014 -6.36111e-015
lhumerus -43.364 12.9342 67.0796
lradius 46.8957
lwrist -12.5444
lhand -10.1982 29.7756
lfingers 7.12502
lthumb 15.7928 1139.15
rfemur -7.20277 -6.43409 28.6603
rtibia 26.4302
rfoot -19.2 -10.796
rtoes 10.7753
lfemur -2.19096 -11.3768 -3.70577
ltibia 42.8971
lfoot 8.60631 -5.3908
ltoes -22.8138
4134
root 1.03364 17.8446 -1.09947 -168.627 249.375 -193.473
lowerback 1.15524 0.906398 -0.160989
upperback -1.49271 1.09563 -3.64964
thorax -2.11294 0.502377 -3.69864
lowerneck -16.9916 -15.6909 -15.0729
upperneck 10.3918 -19.2329 9.88839
head 8.34626 -9.00942 2.90241
rclavicle 9.0447e-015 8.26944e-014
rhumerus 46.1308 -20.3049 -30.9805
rradius 31.9833
rwrist 26.5204
rhand -23.7607 -12.8963
rfingers 7.12502
rthumb 2.70846 -42.8589
lclavicle 9.0447e-015 8.26944e-014
lhumerus -43.3388 12.7859 67.1712
lradius 46.1009
lwrist -12.6457
lhand -9.98898 29.7203
lfingers 7.12502
lthumb 15.9943 1139.08
rfemur -7.26556 -6.40279 29.2445
rtibia 26.466
rfoot -19.2865 -10.6156
rtoes 11.1301
lfemur -2.45163 -11.369 -3.10479
ltibia 43.2472
lfoot 9.001 -5.42567
ltoes -21.8074
4135
root 1.01458 17.8422 -1.10112 -167.505 249.47 -194.647
lowerback 1.08159 0.983967 0.334683
upperback -1.50343 1.2179 -3.52337
thorax -2.06716 0.559039 -3.84962
lowerneck -17.2201 -15.6389 -15.0347
upperneck 10.3873 -19.1629 10.0323
head 8.38662 -8.95469 2.94213
rclavicle 8.87574e-014 1.43125e-014
rhumerus 46.4821 -20.0742 -30.9998
rradius 32.1651
rwrist 26.5827
rhand -23.5649 -12.9323
rfingers 7.12502
rthumb 2.89753 -42.8924
lclavicle 8.87574e-014 1.43125e-014
lhumerus -43.1759 12.5181 67.2885
lradius 45.4136
lwrist -12.591
lhand -9.45725 29.8825
lfingers 7.12502
lthumb 16.5062 1139.2
rfemur -7.22088 -6.37993 29.6922
rtibia 26.4345
rfoot -19.2903 -10.5447
rtoes 11.0911
lfemur -2.6694 -11.3932 -2.6687
ltibia 43.6516
lfoot 9.33038 -5.57963
ltoes -22.0037
4136
root 1.00214 17.839 -1.10788 -167.735 249.638 -194.49
lowerback 1.27179 1.05411 0.191915
upperback -1.55366 1.30635 -3.43417
thorax -2.22478 0.604557 -3.68394
lowerneck -17.492 -15.5361 -14.8289
upperneck 10.4901 -19.0002 9.8319
head 8.40348 -8.87586 2.86415
rclavicle -6.95746e-015 -5.24792e-014
rhumerus 46.857 -19.6283 -30.8691
rradius 32.3167
rwrist 26.3329
rhand -23.5209 -12.9243
rfingers 7.12502
rthumb 2.94004 -42.8838
lclavicle -6.95746e-015 -5.24792e-014
lhumerus -43.1423 12.3514 67.4543
lradius 44.8155
lwrist -12.4507
lhand -8.92212 29.92
lfingers 7.12502
lthumb 17.0214 1139.19
rfemur -7.07979 -6.30114 29.6289
rtibia 26.3399
rfoot -19.2634 -10.5255
rtoes 11.2742
lfemur -2.82565 -11.3855 -2.73963
ltibia 44.064
lfoot 9.72116 -5.75792
ltoes -21.6457
4137
root 0.979267 17.8364 -1.10838 -167.696 249.68 -194.589
lowerback 1.24804 1.09414 0.220031
upperback -1.5726 1.36539 -3.29907
thorax -2.22942 0.635563 -3.56114
lowerneck -17.258 -15.2343 -14.7313
upperneck 9.99355 -18.5768 9.71187
head 8.12607 -8.69817 2.92072
rclavicle -2.45499e-014 1.43125e-014
rhumerus 47.2347 -19.1115 -30.6638
rradius 32.5385
rwrist 26.0466
rhand -23.4686 -13.2744
rfingers 7.12502
rthumb 2.9906 -43.2332
lclavicle -2.45499e-014 1.43125e-014
lhumerus -43.0939 12.1702 67.6715
lradius 44.1572
lwrist -12.3944
lhand -8.27686 29.5184
lfingers 7.12502
lthumb 17.6424 1138.74
rfemur -6.93743 -6.34188 29.6573
rtibia 26.3375
rfoot -19.4044 -10.4046
rtoes 11.811
lfemur -2.93442 -11.5315 -2.71728
ltibia 44.4242
lfoot 9.99804 -5.84212
ltoes -21.1836
4138
root 0.952208 17.8355 -1.10553 -167.216 249.703 -195.097
lowerback 1.05313 1.12345 0.505032
upperback -1.55947 1.41955 -3.17341
thorax -2.09896 0.661888 -3.58824
lowerneck -17.4893 -15.103 -14.7535
upperneck 10.1053 -18.3416 9.59211
head 8.16258 -8.58766 2.91237
rclavicle -3.1408e-014 -2.38542e-014
rhumerus 47.5987 -18.7171 -30.578
rradius 32.8111
rwrist 25.9734
rhand -23.3572 -13.1228
rfingers 7.12502
rthumb 3.09815 -43.08
lclavicle -3.1408e-014 -2.38542e-014
lhumerus -42.9391 11.8995 67.8627
lradius 43.4929
lwrist -12.4131
lhand -7.37362 29.2223
lfingers 7.12502
lthumb 18.5115 1138.36
rfemur -6.8216 -6.19208 29.8611
rtibia 26.3492
rfoot -19.6416 -10.4673
rtoes 12.1887
lfemur -3.05721 -11.6598 -2.54479
ltibia 44.7855
lfoot 10.1222 -6.31395
ltoes -21.8163
4139
root 0.938222 17.8362 -1.10859 -167.746 249.887 -194.532
lowerback 1.03855 1.17553 0.338042
upperback -1.57651 1.48494 -3.16095
thorax -2.10844 0.696858 -3.4827
lowerneck -17.7554 -14.9462 -14.5173
upperneck 10.1673 -18.0952 9.30673
head 8.14541 -8.47678 2.81948
rclavicle 4.03533e-014 -1.59028e-014
rhumerus 47.9408 -18.3171 -30.4645
rradius 33.0977
rwrist 25.7924
rhand -23.1685 -12.9748
rfingers 7.12502
rthumb 3.28037 -42.9293
lclavicle 4.03533e-014 -1.59028e-014
lhumerus -42.7689 11.7971 67.9824
lradius 42.8522
lwrist -12.687
lhand -6.49557 29.0538
lfingers 7.12502
lthumb 19.3559 1138.11
rfemur -6.74377 -5.78034 29.6776
rtibia 26.3021
rfoot -19.7387 -10.7111
rtoes 12.1416
lfemur -3.22212 -11.6793 -2.79692
ltibia 45.1792
lfoot 10.1321 -7.05414
ltoes -23.3707
4140
root 0.921351 17.8322 -1.11018 -167.448 249.884 -194.991
lowerback 1.13741 1.24499 0.614637
upperback -1.55759 1.58724 -3.07796
thorax -2.13302 0.745309 -3.55772
lowerneck -17.7516 -14.7938 -14.3671
upperneck 9.99236 -17.8905 9.20261
head 8.03832 -8.38583 2.80914
rclavicle -2.31584e-014 -6.36111e-015
rhumerus 48.1737 -17.9117 -30.2953
rradius 33.3731
rwrist 25.4015
rhand -23.0748 -13.2826
rfingers 7.12502
rthumb 3.37089 -43.2357
lclavicle -2.31584e-014 -6.36111e-015
lhumerus -42.5521 11.6381 68.1235
lradius 42.2149
lwrist -13.0141
lhand -5.80022 28.4499
lfingers 7.12502
lthumb 20.0244 1137.44
rfemur -6.57741 -5.84517 29.8542
rtibia 26.3642
rfoot -19.7722 -10.7145
rtoes 11.856
lfemur -3.27916 -11.5991 -2.57627
ltibia 45.5834
lfoot 10.0078 -7.87016
ltoes -23.2563
4141
root 0.894951 17.8288 -1.10428 -167.117 249.781 -195.453
lowerback 1.04504 1.3038 1.03362
upperback -1.50289 1.67911 -3.06364
thorax -2.00746 0.787851 -3.77814
lowerneck -17.7727 -14.7157 -14.2553
upperneck 9.83257 -17.807 9.2634
head 7.97545 -8.33886 2.83187
rclavicle -6.16232e-015 2.70347e-014
rhumerus 48.4374 -17.6335 -30.3547
rradius 33.5274
rwrist 25.2764
rhand -23.2631 -13.357
rfingers 7.12502
rthumb 3.18904 -43.3129
lclavicle -6.16232e-015 2.70347e-014
lhumerus -42.2191 11.2459 68.2724
lradius 41.5651
lwrist -13.1669
lhand -5.42893 27.8569
lfingers 7.12502
lthumb 20.3812 1136.81
rfemur -6.45196 -6.20116 29.997
rtibia 26.5757
rfoot -19.8812 -10.4693
rtoes 11.4968
lfemur -3.34565 -11.4969 -2.34302
ltibia 45.9943
lfoot 9.94463 -8.33917
ltoes -22.5814
4142
root 0.874075 17.835 -1.09764 -169.424 250.001 -192.963
lowerback 0.904462 1.36936 0.342106
upperback -1.49189 1.74352 -3.30606
thorax -1.9254 0.82693 -3.63622
lowerneck -17.9062 -14.6264 -14.2343
upperneck 9.72628 -17.6821 9.37585
head 7.95752 -8.26638 2.88231
rclavicle -3.53837e-014 -9.54166e-015
rhumerus 48.8335 -17.3329 -30.4582
rradius 33.6647
rwrist 25.2221
rhand -23.4455 -13.2669
rfingers 7.12502
rthumb 3.01282 -43.2253
lclavicle -3.53837e-014 -9.54166e-015
lhumerus -41.9206 10.9458 68.4075
lradius 40.9925
lwrist -13.2525
lhand -5.20533 27.6743
lfingers 7.12502
lthumb 20.5961 1136.6
rfemur -6.45946 -6.29365 29.0084
rtibia 26.7091
rfoot -19.9927 -10.2482
rtoes 11.544
lfemur -3.5438 -11.4474 -3.37289
ltibia 46.4312
lfoot 10.1701 -8.20646
ltoes -21.5678
